<?xml version="1.0" encoding="UTF-8"?>
<svg width="4010.6" height="1600.9" enable-background="new 0 0 1610.775 1665.427" version="1.1" viewBox="0 0 4010.6 1600.9" xml:space="preserve" xmlns="http://www.w3.org/2000/svg">
<g transform="translate(-31.149 -32.296)">
	<path d="m834.55 32.707c20.228 14.031 40.502 28.047 59.79 43.381 4.455 3.273 8.334 8.758 14.546 8.137 11.682-0.076 24.319-1.258 33.819-8.803 14.667-10.425 30.319-19.713 47.502-25.395 36.441-13.304 77.912-15.773 114.26-0.788 23.349 6.879 46.047 16.713 65.73 31.229 2.833 1.803 5.773 5.455 9.455 3.273 31.016-11.94 63.048-21.698 96.004-26.35 23.683-3.152 48.76-3.818 71.23 5.546 27.456 10.955 51.305 30.092 68.973 53.699 4.758 7 10.607 13.773 12.925 22.062 0.833 12.561-0.773 25.425-5.228 37.229-3.606 9.606-10.788 19.061-21.44 21.001-17.91 3.076-36.168 5.303-53.29 11.728-6.818 2.712-13.895 5.894-18.546 11.819-11.031 14.304-18.501 30.895-28.41 45.926-5.091 9.819-11.304 19.304-14.864 29.759 1.379 10.94 3 21.895 4.894 32.759 3 6.909 8.758 12.182 13.122 18.243 51.684 64.412 108.67 125.5 149.19 197.98 27.668 53.411 56.957 106.52 95.08 153.31 9.879 12.879 20.44 25.243 29.85 38.471-17.334-10.228-33.547-22.258-51.002-32.274 4.076 11.697 5.849 24.016 9.394 35.865 5.455 19.849 11.97 39.411 17.046 59.366-6.788-6.849-11.576-15.349-18.258-22.274 2.5 16.864 6.606 33.456 9.152 50.32-11.804-11.91-23.592-23.834-35.259-35.865-5.425-5.47-10.576-11.228-16.531-16.122 3.243 19.728 7.849 39.547 6.485 59.699-1.243 21.41-11.804 40.623-21.198 59.396-7.152 13.622-16.289 26.016-24.744 38.82-4.606 7.334-9.606 14.879-10.819 23.637-5.106 39.123-10.016 78.276-14.758 117.46-4.061 31.077-7.682 62.306-14.849 92.867-16.88 60.093-26.638 122.75-53.623 179.55-8.137 18.819-21.274 34.911-35.259 49.654-19.198 19.895-40.471 37.683-62.851 53.866-9.334 6.818-15.243 17.016-23.259 25.168-15.698 16.273-33.501 30.35-51.472 43.987-29.486 22.228-60.442 42.411-92.246 61.109 5.94 16.319 10.485 34.092 5.682 51.335-67.958 0.379-135.93 0.061-203.89 0.167-16.137-0.258-32.304 0.697-48.396-0.879-33.32-1.349-66.578-3.864-99.822-6.485 1.621 2.409 3.258 4.818 4.864 7.288-80.912 0.106-161.82 0.167-242.74-0.03-0.652-3.561-1.333-7.106-1.985-10.637-16.607-1.652-33.229-3.394-49.896-4.44-19.395-1.379-38.88-0.47-58.26-2.227 1.106 1.742 2.273 3.53 3.455 5.303-28.804-10.773-58.533-19.41-85.913-33.638-64.897-32.35-118.13-83.837-162.13-140.75-8.925-12.228-19.395-23.259-27.592-36.002-14.091-22.122-29.971-43.062-43.85-65.321-27.047-45.744-39.426-98.459-46.517-150.64-8.758-68.169-7.773-137.23-2.015-205.6 3.409-39.562 8.531-78.973 15.046-118.13 8.667-49.366 29.259-96.004 55.942-138.19 27.501-43.517 61.306-82.761 98.05-118.69 27.016-26.259 55.73-50.82 86.2-72.988 3.682-3.106 9.288-1.621 12.576-5.455 49.32-41.002 102.58-76.837 153.14-116.23-4.546-8.061-7.273-17.849-4.182-26.91 3.091-3.197 7.167-5.212 10.637-7.97 11.076-8.485 20.971-18.577 29.077-29.956 6.5-9 10.379-19.561 13.743-30.062 7.167-22.834 11.637-46.426 18.925-69.23 3.455-10.561 7.803-21.425 16.364-28.941 13.258-12.016 31.077-16.379 47.472-22.304 4.167-2.849 6.273-7.864 9.5-11.667 14.925-20.834 35.304-36.88 56.23-51.305 9.167-6.197 18.577-12.107 28.319-17.395 0.121-1.273 0.394-3.833 0.515-5.106 4.97-0.273 9.743-1.788 14.682-2.318 6.137-0.697 12.304-0.045 18.44 0.424-10.985 6.334-22.683 11.303-33.547 17.864-34.835 20.137-68.442 45.305-89.185 80.534 2.03-0.545 4.076-1.076 6.121-1.636 13.243-3.833 26.168-8.682 38.896-13.985 19.152-7.47 40.32-4.394 59.715 0.47 1.652 0.409 3.303 0.864 4.97 1.349 27.213 8.485 53.169 20.41 80.049 29.85 4.515 0.939 2.106 5.349 1.364 8.303-32.623 101.34-65.003 202.75-97.549 304.1-5.258 15.986-9.97 32.138-15.546 48.002-13.364 2.167-26.895 3.803-40.456 3.5-5.712-0.303-11.94-0.682-16.622-4.333-4.5-3.576-8-8.182-11.607-12.607-17.955-22.622-34.214-46.532-51.654-69.548-4.955-6.531-9.834-13.122-14.273-20.016-1.046-1.682-2.03-3.394-2.955-5.121-9.213-17.334-16.895-36.638-32.426-49.426-7.061-5.864-16.364-7.409-24.213-11.819-1.727-0.879-3.455-1.742-5.167-2.606-21.349 15.985-42.38 32.41-64.003 48.032-24.289 17.546-48.381 35.38-71.957 53.881-20.607 16.152-41.396 32.183-60.124 50.532-7.758 7.47-16.849 13.925-21.925 23.698-19.91 17.47-37.653 37.395-52.517 59.336-7.076 10.425-12.016 22.092-19.061 32.532-9.182 14.334-20.592 27.198-33.744 38.002 13.501-2.909 27.016-5.788 40.668-7.955-18.258 24.698-36.971 49.184-52.684 75.639-10.5 17.531-16.622 37.214-21.713 56.881-9.122 36.138-14.228 73.155-18.47 110.14-1.318 12.137-2.743 24.274-3.212 36.486-0.394 7.864 1.636 15.531 2.606 23.274 0.667 4.894 2.106 10.091 6.046 13.395 2.955 2.652 7.091 2.955 10.819 3.788-2.621 10.455-5.485 20.986-10.728 30.486-7.349 13.001-15.364 25.622-22.471 38.774 10.5-3.712 20.652-8.334 31.138-12.122-5.667 16.97-12.061 33.683-17.819 50.623 9.288-7.319 18.577-14.682 26.956-23.047 1.985-2.015 4.333-3.591 6.803-4.924 0.53 6.349-1.288 12.561-4.273 18.092-5.728 11.895-16.47 20.41-22.062 32.41-4.288 9.076-8.546 19.122-7.228 29.365 0.379 0.697 1.152 2.121 1.53 2.818 17.092-10.788 32.229-24.456 48.699-36.214-11.016 11.788-21.607 23.956-31.88 36.395-6.728 7.713-12.41 16.849-13.743 27.183-1.758 12.667 3.091 25.44 11.076 35.168 2.561-9.303 3.303-19.319 8.561-27.668 12.107-20.531 27.244-39.092 42.38-57.457-9.106 22.167-18.546 44.199-26.895 66.669-3.955 9.864-2.515 20.728-1.227 30.986 3.818 24.819 11.364 49.123 22.546 71.624 9.076 18.713 23.334 34.107 36.305 50.138 43.578 51.729 88.594 102.22 133.58 152.72 12.743 13.91 24.774 28.516 38.092 41.88-6.015-0.167-11.894-1.409-17.576-3.303 26.274 14.516 56.745 19.955 86.534 19.622 20.637-0.349 41.199 1.849 61.73 3.651 7.516 0.546 15.031 1.243 22.456 2.561 0.879 3.288 1.788 6.591 2.682 9.91 71.548 0.394 143.11 0.212 214.68 0.091-0.924-2.924-1.833-5.833-2.727-8.728 40.32 2.288 80.534 6.516 120.91 7.773 14.152-0.167 28.259 1.379 42.426 1.349 58.078-0.515 116.16-0.197 174.23-0.288 7.818-0.182 15.773 0.879 23.547-0.546 2.879-0.182 2.379-3.121 2.545-5.167 0.288-14.289-5.576-27.622-10.394-40.759 47.305-27.516 93.246-57.836 134.57-93.852 13.213-11.455 24.243-25.092 35.426-38.456 1.455-4.409-1.833-9.137-2.258-13.622-3.091-38.79-5.182-77.655-8.349-116.44-1.561-21.774-1.924-43.699 0.53-65.427 1.621-14.273 3.606-29.092 11.228-41.578 5.909-10.076 15.652-16.849 24.577-23.986 10.106-7.682 17.819-17.895 24.44-28.607 14.94-22.44 22.349-48.684 28.228-74.7 2.03-9.985 6.212-19.365 11.5-28.031 12.485-20.668 28.41-38.987 44.669-56.745 11.91-12.834 24.183-25.365 37.047-37.259 2.349-2.227 4.803-4.546 5.834-7.728 0.848 1.636 1.712 3.258 2.606 4.909 7.44-23.956 25.728-42.002 36.88-64.048 7.243-14.41 15.273-28.713 18.94-44.562 4.136-17.622 1.167-35.865-1.788-53.426-2.379-15.334-7.122-30.198-9.273-45.578 18.167 15.804 33.486 34.607 51.714 50.335-1.924-19.046-6.713-37.638-10.516-56.336 4.121 4.455 8.122 9.031 12.167 13.561-1.424-6.985-3.273-13.879-5.046-20.789-2.273-8.713-3.546-17.773-7.394-26.001-5.379-11.758-13.637-21.865-19.774-33.198 12.319 6.122 22.895 15.182 35.289 21.183-5.47-9.091-12.455-17.152-18.334-25.971-15.94-23.334-30.638-47.517-44.38-72.215-12.091-21.001-21.955-43.214-34.729-63.821-42.275-69.503-98.428-128.85-148.46-192.58-7.561-8.834-7.016-21.061-8.925-31.85-0.879-6.076-2.03-12.091-3.197-18.092-1.349 1.803-2.652 3.621-3.955 5.455-0.409 0.576-1.243 1.712-1.652 2.288-14.288-53.881-33.365-107.04-62.503-154.81-8.682-13.713-17.486-27.577-29.077-39.062-2.985-4.985-5.44-10.531-10.121-14.182-17.986-13.773-38.608-23.789-60.154-30.622-12.546-3.909-24.925-8.712-37.956-10.713-24.789-3.394-50.154-0.409-73.837 7.44-17.834 5.137-34.319 14.076-49.078 25.213-11.516 8.909-26.546 11.607-40.789 11.258-10.273-0.273-16.789-9.197-24.456-14.743-11.94-8.879-23.637-18.183-36.426-25.819 0.939 9.697 2.909 19.243 4.243 28.895-15.834-8.849-30.077-21.395-47.926-26.016-23.062-3.697-46.381 1.364-68.912 6.091-7.167 1.576-14.258 3.44-21.152 5.864 8.303 3.288 17.258 2.818 26.001 2.546 4.349-0.424 7.894 2.349 11.182 4.788-22.91 3.606-45.714 8.046-68.321 13.182-0.061 1.167-0.167 3.47-0.227 4.637 6.455-0.894 12.849-2.333 19.364-2.652 7.031-0.288 13.728 2.227 20.168 4.743-10.031 5.788-20.971 9.773-31.229 15.122-3.364 1.621-5.849 4.47-8.076 7.364-0.818-4.046-2.076-7.985-3.318-11.925 1.985-1.379 3.97-2.773 5.94-4.243-3.909-3.046-9.076-1.773-13.622-2.076-25.38-0.409-50.775-0.455-76.139-1.182 32.88-8.485 66.548-13.788 99.231-23.031-7.667-2.303-15.682-3.076-23.319-5.485 28.244-7.909 56.154-17.38 85.201-21.925 15.455-2.455 31.304-4.121 46.881-1.833 13.561 1.909 24.456 10.834 36.305 16.91-1.272-10.255-3.484-20.362-4.742-30.635m588.65 998.72c-3.727 29.789-7.031 59.669-12.531 89.216-5.621 30.456-11.015 61.033-19.804 90.761-9.728 36.062-21.607 71.503-32.153 107.32-3.44 12.152-8.728 23.622-13.213 35.395 5.864-7.455 9.319-16.364 13.182-24.91 22.713-53.26 31.501-110.88 47.381-166.26 8.228-37.441 12.167-75.655 16.849-113.66 1.303-14.773 4.5-29.456 4.046-44.335-2.075 8.682-2.424 17.652-3.757 26.47m-1297.9 355.32c2.742 8.334 8.546 15.061 13.167 22.364 5.743 7.97 11.455 16.274 19.38 22.289-4.5-8.955-11.243-16.455-16.91-24.637-5.212-6.667-9.121-14.44-15.637-20.016z" stroke="#000"/>
	<path d="m997.77 57.663c23.683-7.849 49.047-10.834 73.837-7.44 13.031 2 25.41 6.803 37.956 10.713 21.546 6.834 42.168 16.849 60.154 30.622 4.682 3.652 7.137 9.197 10.121 14.182-16.379-13.682-34.304-25.713-54.184-33.683-29.562-12.319-62.109-16.304-93.928-13.91-19.546 1.742-39.683 4.652-57.017 14.425-17.334 9.531-33.289 21.334-50.275 31.456-9.591 5.879-21.062 7.197-32.077 7.44-34.971 0.833-69.715-4.424-104.62-5.364-9.182-0.879-16.213 5.849-22.228 11.773-14.622 14.925-26.895 31.941-39.077 48.85-7.773 11.213-15.849 22.243-22.683 34.047-1.667-0.485-3.318-0.939-4.97-1.349 13.001-20.471 26.956-40.35 41.699-59.609 8.637-10.955 17.425-21.925 27.971-31.138 4.94-4.258 10.925-8.273 17.789-7.622 31.895 0.712 63.578 5.197 95.474 5.561 14.561-0.061 30.441 0.212 42.956-8.394-10.076 0.318-21.955 3.273-30.441-3.818-13.137-11.334-27.289-21.425-41.426-31.471 1.439 10.273 3.47 20.455 4.879 30.729-10.425-7.576-20.955-15.031-32.107-21.516-8.394-4.818-16.804-10.561-26.743-11.394-18.592-1.985-37.229 1.318-55.427 4.834 7.394 3 13.379 8.606 16.834 15.819-15.895-0.742-31.486 2.667-46.881 6.152 9.076 2.576 18.152 5.318 26.713 9.349-13.349 1.485-25.425 7.288-37.229 13.319 11.894 0.212 23.804 0.864 35.577 2.591-26.198 10.682-51.608 23.471-75.094 39.305-15.137 10.288-29.88 21.395-42.577 34.638-7.576 8.152-14.107 17.167-20.577 26.183-2.045 0.561-4.091 1.091-6.121 1.636 20.743-35.229 54.351-60.396 89.185-80.534 10.864-6.561 22.562-11.531 33.547-17.864-6.137-0.47-12.304-1.121-18.44-0.424-4.94 0.53-9.713 2.046-14.682 2.318l-1.515 0.061c2.227-2.894 4.712-5.743 8.076-7.364 10.258-5.349 21.198-9.334 31.229-15.122-6.44-2.515-13.137-5.031-20.168-4.743-6.516 0.318-12.91 1.758-19.364 2.652 0.061-1.167 0.167-3.47 0.227-4.637 22.607-5.137 45.411-9.576 68.321-13.182-3.288-2.439-6.834-5.212-11.182-4.788-8.743 0.273-17.698 0.742-26.001-2.546 6.894-2.424 13.985-4.288 21.152-5.864 22.531-4.727 45.85-9.788 68.912-6.091 17.849 4.621 32.092 17.167 47.926 26.016-1.333-9.652-3.303-19.198-4.243-28.895 12.788 7.637 24.486 16.94 36.426 25.819 7.667 5.546 14.182 14.47 24.456 14.743 14.243 0.348 29.274-2.349 40.789-11.258 14.757-11.137 31.242-20.077 49.076-25.213z" fill="#1e1e1e" stroke="#1e1e1e"/>
	<path d="m974.71 72.573c17.334-9.773 37.471-12.682 57.017-14.425 31.82-2.394 64.366 1.591 93.928 13.91 19.88 7.97 37.805 20.001 54.184 33.683 11.591 11.485 20.395 25.35 29.077 39.062 29.138 47.775 48.214 100.93 62.503 154.81 0.409-0.576 1.242-1.712 1.652-2.288 2.939 11.652 4.515 23.607 5.652 35.562-8.546-7.228-15.577-15.97-23.046-24.228-32.941-37.138-66.488-74.2-105.78-104.79-13.591-10.561-27.956-20.213-43.396-27.88-12.122-5.97-24.94-10.319-37.289-15.773-29.183-12.44-57.381-27.122-86.928-38.699-12.667-4.53-26.153-9.394-39.79-7.046-9.652 1.727-16.289 10.303-18.667 19.364-7.758 26.789-12.682 55.184-8.061 82.988 3.485 21.395 13.667 41.805 29.622 56.624 16.91 15.455 35.289 29.289 51.638 45.366 13.485 13.137 25.168 28.244 33.501 45.184 8.531 16.561 13.561 34.562 19.122 52.26 11.076 35.774 21.592 71.7 31.608 107.78 2.727 9.167 4.5 18.789 9.212 27.213 2.697 5.015 7.637 8.106 12.288 11.091-5.106 11.682-12.379 22.213-18.652 33.259-26.441 44.684-58.412 86.807-75.912 136.17-6.182 17.001-9.364 34.88-14.455 52.199-4.212 15.44-9.44 30.971-9.122 47.169 0.045 14.395 4.743 28.244 10.228 41.396 4.546 10.561 9.47 21.183 16.895 30.077 11.197 13.758 26.031 23.819 40.608 33.653 7.516 5.455 16.122 10.712 20.122 19.486 3.379 8.591-2.091 17.379-7.212 24.001-12.44 14.985-27.774 27.531-44.593 37.289-24.774 14.273-53.078 20.622-78.261 33.986-11 5.697-21.349 12.637-30.91 20.516-11.697 9.425-21.455 20.94-32.835 30.729-14.698 13.303-31.001 24.622-46.653 36.729-8.758 7-18.183 15.334-19.834 27.077-1.697 13.652 5.455 26.259 12.394 37.426 12.319 19.364 31.729 32.319 50.214 45.168 11.622 8.334 24.243 17.425 29.213 31.486 4.773 14.319-0.197 29.592-6.227 42.729-7.425 17.077-19.622 31.668-34.062 43.259-19.986 16.107-43.517 27.229-67.776 35.229-31.926 10.167-65.503 15.38-99.034 14.758-25.91-0.333-52.078-3.94-76.382-13.198-42.684-17.031-80.306-46.729-106.11-84.822-28.274-41.411-43.729-90.049-53.714-138.78-10.5-51.472-17.804-103.56-23.107-155.81-5.758-59.821-9.834-120.13-5.424-180.19 1.697-20.865 4.334-41.82 10.47-61.896 26.228-85.473 52.29-171.01 80.609-255.81 4.5-12.607 8.288-25.547 14.213-37.592 4.44 6.894 9.318 13.485 14.273 20.016 17.44 23.016 33.698 46.926 51.654 69.548 3.606 4.424 7.106 9.031 11.607 12.607 4.682 3.652 10.91 4.03 16.622 4.333 13.561 0.303 27.092-1.333 40.456-3.5 5.576-15.864 10.288-32.016 15.546-48.002 32.547-101.35 64.927-202.77 97.549-304.1 0.742-2.955 3.152-7.364-1.364-8.303-26.88-9.44-52.836-21.365-80.049-29.85 6.833-11.804 14.91-22.834 22.683-34.047 12.182-16.91 24.456-33.926 39.077-48.85 6.015-5.924 13.046-12.652 22.228-11.773 34.91 0.939 69.654 6.197 104.62 5.364 11.016-0.242 22.486-1.561 32.077-7.44 16.985-10.123 32.941-21.927 50.275-31.457m-60.503 289.88c-25.244 4.409-46.063 23.38-56.396 46.32-11.728 25.789-11.667 56.699 0.182 82.443 8 17.531 21.88 32.683 39.532 40.759 16.213 7.622 35.471 8.303 52.214 1.985 17.213-6.318 31.41-19.531 40.486-35.305 14.44-24.804 16.652-56.048 6.864-82.928-7.031-19.561-20.955-37.077-39.638-46.593-13.167-6.893-28.622-9.226-43.244-6.681z" fill="#9a653b" stroke="#9a653b"/>
	<path d="m743.39 65.587c18.198-3.515 36.835-6.818 55.427-4.834 9.94 0.833 18.349 6.576 26.743 11.394 11.152 6.485 21.683 13.94 32.107 21.516-1.409-10.273-3.44-20.455-4.879-30.729 14.137 10.046 28.289 20.137 41.426 31.471 8.485 7.091 20.365 4.137 30.441 3.818-12.516 8.606-28.395 8.334-42.956 8.394-31.895-0.364-63.578-4.849-95.474-5.561-6.864-0.652-12.849 3.364-17.789 7.622-10.546 9.213-19.334 20.183-27.971 31.138-14.743 19.258-28.698 39.138-41.699 59.609-19.395-4.864-40.562-7.94-59.715-0.47-12.728 5.303-25.653 10.152-38.896 13.985 6.47-9.016 13.001-18.031 20.577-26.183 12.698-13.243 27.44-24.35 42.577-34.638 23.486-15.834 48.896-28.622 75.094-39.305-11.773-1.727-23.683-2.379-35.577-2.591 11.803-6.031 23.88-11.834 37.229-13.319-8.561-4.03-17.637-6.773-26.713-9.349 15.395-3.485 30.986-6.894 46.881-6.152-3.453-7.209-9.439-12.815-16.833-15.816z" fill="#fff" stroke="#fff"/>
	<path d="m923.82 133.83c2.379-9.061 9.015-17.637 18.667-19.364 13.637-2.349 27.122 2.515 39.79 7.046 29.547 11.576 57.745 26.259 86.928 38.699 12.349 5.455 25.168 9.803 37.289 15.773 15.44 7.667 29.804 17.319 43.396 27.88 39.29 30.592 72.836 67.654 105.78 104.79 7.47 8.258 14.5 17.001 23.046 24.228-1.136-11.955-2.712-23.91-5.652-35.562 1.303-1.833 2.606-3.652 3.955-5.455 1.167 6 2.318 12.016 3.197 18.092 1.909 10.788 1.364 23.016 8.925 31.85 50.032 63.73 106.19 123.08 148.46 192.58 12.773 20.607 22.637 42.82 34.729 63.821 13.743 24.698 28.441 48.881 44.38 72.215 5.879 8.819 12.864 16.88 18.334 25.971-12.395-6-22.971-15.061-35.289-21.183 6.137 11.334 14.395 21.44 19.774 33.198 3.849 8.228 5.121 17.289 7.394 26.001 1.773 6.909 3.621 13.804 5.046 20.789-4.046-4.53-8.046-9.106-12.167-13.561 3.803 18.698 8.591 37.289 10.516 56.336-18.228-15.728-33.547-34.532-51.714-50.335 2.151 15.379 6.894 30.244 9.273 45.578 2.955 17.561 5.924 35.805 1.788 53.426-3.667 15.849-11.697 30.153-18.94 44.562-11.152 22.046-29.441 40.093-36.88 64.048-0.894-1.652-1.758-3.273-2.606-4.909 4.394-15.198 14.213-27.85 22.91-40.789 6.273-9.106 12.016-18.592 16.88-28.531 5.591-11.455 11.379-23.001 14.41-35.456 2.833-11.697 2.015-23.865 0.606-35.698-3.546-26.789-10.622-52.911-16.819-79.155 18.637 18.152 36.335 37.259 55.002 55.381-3.682-18.395-5.622-37.517-13.895-54.608-5.167-12.016-14.395-21.486-21.971-31.926 0.758-0.924 2.273-2.788 3.031-3.712 11.94 12.122 19.743 27.516 31.092 40.168-2.03-8.834-3.076-18.061-7.318-26.198-9.804-19.031-22.925-36.032-35.108-53.548 13.031 7.667 25.441 16.349 38.229 24.425-17.213-24.592-33.047-50.154-47.714-76.336-13.591-23.531-24.713-48.411-39.168-71.442-42.502-68.397-98.216-127.02-147.48-190.34-3.485-3.182-8.197-4.773-11.334-8.394-16.334-17.046-31.426-35.214-47.517-52.457-21.062-22.865-42.971-45.047-66.866-64.972-15.682-12.985-32.229-25.092-50.29-34.547-10.591-5.576-21.91-9.5-32.88-14.198-23.971-10.031-47.366-21.319-71.048-31.971-14.319-6.288-28.713-12.758-44.062-16.107-7.379-1.424-15.622-2.091-22.425 1.682-6.137 3.5-8.591 10.591-10.364 17.001-7.137 25.789-11.531 53.139-6.53 79.746 3.606 19.652 13.455 38.153 28.183 51.714 17.001 15.349 35.289 29.259 51.623 45.35 14.319 14.001 26.501 30.259 35.153 48.366 8.258 16.637 13.167 34.623 18.743 52.275 12.167 39.305 23.592 78.821 34.547 118.48 1.606 5.576 3.318 11.273 6.697 16.076 2.758 4.046 7.788 5.409 11.349 8.576 1.743 3.773-1.152 7.758-2.652 11.152-12.364 21.713-25.395 43.047-38.82 64.109-18.258 28.956-36.956 57.957-49.608 89.913-8.622 20.713-12.395 42.926-18.728 64.351-4.455 16.122-9.834 32.698-7.622 49.654 2.212 17.076 9.409 33.017 17.122 48.244 10.864 20.395 30.592 33.501 49.199 46.153 8.788 6.273 19.061 12.985 21.728 24.198 2.227 10.425-4 20.122-10.318 27.804-13.667 15.849-30.335 29.077-48.714 39.047-24.077 13.061-51.108 19.395-75.261 32.289-11.955 6.288-23.107 14.076-33.274 22.971-8.091 7.016-15.243 15.016-23.137 22.259-12.849 12.046-26.834 22.819-41.017 33.259-9.061 6.955-18.94 13.425-25.577 22.925-4.591 6.364-4.864 14.819-2.409 22.077 7.091 20.986 22.289 38.305 40.093 51.093 14.743 11.41 31.941 20.289 43.578 35.259 8.985 11.288 10.713 26.819 7.031 40.487-5.182 19.516-15.379 37.774-29.562 52.199-15.288 15.819-34.229 27.698-54.123 36.835-30.259 13.728-63.018 21.486-96.034 24.516-30.516 2.621-61.639 1.333-91.383-6.394-19.834-5.046-38.365-14.228-55.79-24.819-24.531-15.046-46.199-34.714-63.578-57.654-20.41-26.759-34.986-57.548-45.608-89.367-13.243-39.835-20.455-81.306-27.153-122.64-9.455-61.29-16.061-123.05-18.577-185.02-1.394-40.274-1.47-80.821 4.273-120.79 3.485-25.774 12.985-50.138 20.152-75.003 20.88-68.139 41.987-136.22 64.397-203.87 6.091-17.243 11.122-34.956 18.955-51.517 0.924 1.727 1.909 3.44 2.955 5.121-5.925 12.046-9.713 24.986-14.213 37.592-28.319 84.807-54.381 170.34-80.609 255.81-6.137 20.077-8.773 41.032-10.47 61.896-4.409 60.063-0.333 120.37 5.424 180.19 5.303 52.245 12.607 104.34 23.107 155.81 9.985 48.729 25.44 97.368 53.714 138.78 25.804 38.093 63.427 67.791 106.11 84.822 24.304 9.258 50.472 12.864 76.382 13.198 33.532 0.621 67.109-4.591 99.034-14.758 24.259-8 47.79-19.122 67.776-35.229 14.44-11.591 26.637-26.183 34.062-43.259 6.031-13.137 11-28.41 6.227-42.729-4.97-14.061-17.591-23.152-29.213-31.486-18.486-12.849-37.895-25.804-50.214-45.168-6.94-11.167-14.092-23.774-12.394-37.426 1.651-11.743 11.076-20.077 19.834-27.077 15.652-12.107 31.956-23.425 46.653-36.729 11.379-9.788 21.137-21.304 32.835-30.729 9.561-7.879 19.91-14.819 30.91-20.516 25.183-13.364 53.487-19.713 78.261-33.986 16.819-9.758 32.153-22.304 44.593-37.289 5.121-6.622 10.591-15.41 7.212-24.001-4-8.773-12.606-14.031-20.122-19.486-14.576-9.834-29.41-19.895-40.608-33.653-7.425-8.894-12.349-19.516-16.895-30.077-5.485-13.152-10.182-27.001-10.228-41.396-0.318-16.198 4.909-31.729 9.122-47.169 5.091-17.319 8.273-35.198 14.455-52.199 17.501-49.366 49.472-91.489 75.912-136.17 6.273-11.046 13.546-21.577 18.652-33.259-4.652-2.985-9.591-6.076-12.288-11.091-4.712-8.425-6.485-18.046-9.212-27.213-10.016-36.077-20.531-72.003-31.608-107.78-5.561-17.698-10.591-35.698-19.122-52.26-8.334-16.94-20.016-32.047-33.501-45.184-16.349-16.076-34.729-29.91-51.638-45.366-15.955-14.819-26.137-35.229-29.622-56.624-4.625-27.807 0.299-56.202 8.057-82.991z" fill="#1f1f1e" stroke="#1f1f1e"/>
	<path d="m937.51 121.62c6.803-3.773 15.046-3.106 22.425-1.682 15.349 3.349 29.744 9.819 44.062 16.107 23.683 10.652 47.078 21.94 71.048 31.971 10.97 4.697 22.289 8.622 32.88 14.198 18.061 9.455 34.607 21.562 50.29 34.547 23.895 19.925 45.805 42.108 66.866 64.972 16.092 17.243 31.183 35.411 47.517 52.457 3.137 3.621 7.849 5.212 11.334 8.394 49.26 63.321 104.97 121.94 147.48 190.34 14.455 23.031 25.577 47.911 39.168 71.442 14.667 26.183 30.501 51.745 47.714 76.336-12.788-8.076-25.198-16.758-38.229-24.425 12.182 17.516 25.304 34.517 35.108 53.548 4.242 8.137 5.288 17.364 7.318 26.198-11.349-12.652-19.152-28.047-31.092-40.168-0.758 0.924-2.273 2.788-3.031 3.712 7.576 10.44 16.804 19.91 21.971 31.926 8.273 17.092 10.213 36.214 13.895 54.608-18.668-18.122-36.365-37.229-55.002-55.381 6.197 26.244 13.273 52.366 16.819 79.155 1.409 11.834 2.227 24.001-0.606 35.698-3.03 12.455-8.819 24.001-14.41 35.456-4.864 9.94-10.607 19.425-16.88 28.531-8.697 12.94-18.516 25.592-22.91 40.789-1.031 3.182-3.485 5.5-5.834 7.728-12.864 11.894-25.137 24.425-37.047 37.259-16.258 17.758-32.183 36.077-44.669 56.745-5.288 8.667-9.47 18.046-11.5 28.031-5.879 26.016-13.288 52.26-28.228 74.7-6.622 10.713-14.334 20.925-24.44 28.607-8.925 7.137-18.668 13.91-24.577 23.986-7.622 12.485-9.607 27.304-11.228 41.578-2.455 21.728-2.091 43.653-0.53 65.427 3.167 38.79 5.258 77.655 8.349 116.44 0.121 3.03 0.409 6.106 0.136 9.167-3.591 5.031-8.455 9.016-12.198 13.94-13.379 17.379-30.683 31.153-47.684 44.775-34.88 27.198-71.836 51.76-110.37 73.458-6.137-11.516-11.743-23.865-21.94-32.441-21.319-18.546-51.017-28.471-79.125-23.259-21.001 3.894-39.168 17.38-51.669 34.335-16.273 22.258-32.35 44.653-48.547 66.957-51.729-0.545-103.32-5.091-154.82-9.228-7.167-7.546-12.379-16.788-18.789-24.971-9.955-13.288-19.001-27.274-29.683-39.986-14.97-17.319-37.153-28.728-60.29-28.531-18.395-0.061-36.592 5.697-52.154 15.379-9.713 6.152-18.758 13.849-24.622 23.88-9.788 16.576-18.304 34.274-21.88 53.351-22.183-1.576-44.259-4.515-66.503-5.394-17.455-1.03-35.047 0.212-52.381-2.47-12.44-1.53-24.319-5.591-36.259-9.197-13.319-13.364-25.35-27.971-38.092-41.88-44.987-50.502-90.004-100.99-133.58-152.72-12.97-16.031-27.228-31.426-36.305-50.138-11.182-22.501-18.728-46.805-22.546-71.624-1.288-10.258-2.727-21.122 1.227-30.986 8.349-22.471 17.789-44.502 26.895-66.669-15.137 18.364-30.274 36.926-42.38 57.457-5.258 8.349-6 18.364-8.561 27.668-7.985-9.728-12.834-22.501-11.076-35.168 1.333-10.334 7.015-19.47 13.743-27.183 10.273-12.44 20.865-24.607 31.88-36.395-16.47 11.758-31.607 25.425-48.699 36.214-0.379-0.697-1.152-2.121-1.53-2.818-1.318-10.243 2.94-20.289 7.228-29.365 5.591-12 16.334-20.516 22.062-32.41 2.985-5.531 4.803-11.743 4.273-18.092-2.47 1.333-4.818 2.909-6.803 4.924-8.379 8.364-17.667 15.728-26.956 23.047 5.758-16.94 12.152-33.653 17.819-50.623-10.485 3.788-20.637 8.41-31.138 12.122 7.106-13.152 15.122-25.774 22.471-38.774 5.243-9.5 8.106-20.031 10.728-30.486-3.727-0.833-7.864-1.136-10.819-3.788-3.94-3.303-5.379-8.5-6.046-13.395-0.97-7.743-3-15.41-2.606-23.274 0.47-12.213 1.894-24.35 3.212-36.486 4.243-36.986 9.349-74.003 18.47-110.14 5.091-19.667 11.213-39.35 21.713-56.881 15.713-26.456 34.426-50.941 52.684-75.639-13.652 2.167-27.168 5.046-40.668 7.955 13.152-10.803 24.562-23.668 33.744-38.002 7.046-10.44 11.985-22.107 19.061-32.532 14.864-21.94 32.607-41.865 52.517-59.336 41.078-36.077 83.655-70.442 127.67-102.88 24.41-18.016 49.123-35.608 73.109-54.199 7.485-5.44 14.334-11.819 22.395-16.455 7.849 4.409 17.152 5.955 24.213 11.819 15.531 12.788 23.213 32.092 32.426 49.426-7.834 16.561-12.864 34.274-18.955 51.517-22.41 67.654-43.517 135.73-64.397 203.87-7.167 24.865-16.667 49.229-20.152 75.003-5.743 39.971-5.667 80.518-4.273 120.79 2.515 61.972 9.122 123.73 18.577 185.02 6.697 41.335 13.91 82.806 27.153 122.64 10.622 31.819 25.198 62.609 45.608 89.367 17.38 22.94 39.047 42.608 63.578 57.654 17.425 10.591 35.956 19.774 55.79 24.819 29.744 7.728 60.866 9.016 91.383 6.394 33.016-3.03 65.775-10.788 96.034-24.516 19.895-9.137 38.835-21.016 54.123-36.835 14.182-14.425 24.38-32.683 29.562-52.199 3.682-13.667 1.954-29.198-7.031-40.487-11.637-14.97-28.834-23.849-43.578-35.259-17.804-12.788-33.001-30.107-40.093-51.093-2.455-7.258-2.182-15.713 2.409-22.077 6.637-9.5 16.516-15.97 25.577-22.925 14.182-10.44 28.168-21.213 41.017-33.259 7.894-7.243 15.046-15.243 23.137-22.259 10.167-8.894 21.319-16.682 33.274-22.971 24.153-12.895 51.184-19.228 75.261-32.289 18.38-9.97 35.047-23.198 48.714-39.047 6.318-7.682 12.546-17.379 10.318-27.804-2.667-11.213-12.94-17.925-21.728-24.198-18.607-12.652-38.335-25.759-49.199-46.153-7.713-15.228-14.91-31.168-17.122-48.244-2.212-16.955 3.167-33.532 7.622-49.654 6.333-21.425 10.107-43.638 18.728-64.351 12.652-31.956 31.35-60.957 49.608-89.913 13.425-21.061 26.456-42.396 38.82-64.109 1.5-3.394 4.394-7.379 2.652-11.152-3.561-3.167-8.591-4.531-11.349-8.576-3.379-4.803-5.091-10.5-6.697-16.076-10.955-39.653-22.38-79.17-34.547-118.48-5.576-17.652-10.485-35.638-18.743-52.275-8.652-18.107-20.834-34.365-35.153-48.366-16.334-16.092-34.623-30.001-51.623-45.35-14.728-13.561-24.577-32.062-28.183-51.714-5-26.607-0.606-53.957 6.53-79.746 1.775-6.412 4.23-13.503 10.366-17.003m354.79 465.49c-24.44 22.516-46.744 47.199-69.457 71.412-12.182 12.546-19.001 29.668-20.774 46.926-1.197 11.894 0.879 24.91 9.349 33.926 15.758 17.667 34.865 31.895 52.835 47.184 10.076 8.515 20.577 16.773 28.653 27.334 8.273 10.182 13.516 22.789 23.865 31.229 1.091 8.379 0.182 16.925 0.303 25.365-0.546 20.167-1.424 40.471-5.606 60.26-3.364 13.516-6.849 27.062-12.016 40.017 1.258 1.227 2.546 2.455 3.849 3.712-9.334 0.879-18.955 0.985-27.971-1.849-18.41-5.788-38.153-6.076-57.108-3.243-10.5 1.803-21.289 4.303-30.244 10.334-8.985 7.015-16.789 15.364-24.577 23.622 9.303-4.379 19.622-0.364 27.713 4.803 15.288 9.94 33.138 15.758 51.275 17.47 13.273 1.136 27.819-0.273 38.441-9.122 13.47-9.137 22.516-22.91 34.032-34.123 6.728-6.712 15.016-11.47 23.016-16.486-10.288 3.288-20.637 6.546-31.335 8.152 0.773-8.182 5.046-15.637 6.682-23.683 10.515-33.607 10.455-69.215 10.606-104.06 2.833-2.546 6.924-3.227 10.046-5.47 11.743-7.728 22.046-17.364 33.123-25.971 27.213-21.38 44.335-52.76 56.229-84.67 4.606-13.288 3.561-27.728 1.864-41.426-2.455-16.44-6.879-33.016-16.061-47.047-5.046-7.94-12.895-13.364-19.804-19.531-14.425-12.137-29.198-24.092-45.745-33.229-9.682-5.227-20.274-9.697-31.441-9.652-7.286-0.058-14.453 2.851-19.742 7.821m55.109 373.17c-1.53-0.167-4.5 2.242-2.046 3.197 2.288 0.939 6.334-3.894 2.046-3.197z" fill="#fff" stroke="#fff"/>
	<path d="m914.2 362.45c14.622-2.546 30.077-0.212 43.244 6.682 18.683 9.516 32.607 27.031 39.638 46.593 9.788 26.88 7.576 58.124-6.864 82.928-9.076 15.773-23.274 28.986-40.486 35.305-16.743 6.318-36.002 5.637-52.214-1.985-17.652-8.076-31.532-23.228-39.532-40.759-11.849-25.743-11.91-56.654-0.182-82.443 10.334-22.941 31.153-41.912 56.396-46.321m31.668 55.533c-6.94 1.455-13.334 5.652-17.016 11.788-9.182 13.743-5.591 35.168 9.152 43.593 10.122 6.349 24.319 3.409 31.804-5.667 6.349-8.091 9.137-19.122 6.091-29.092-3.348-12.713-16.409-23.759-30.031-20.622z" stroke="#000"/>
	<path d="m945.87 417.98c13.622-3.137 26.683 7.909 30.032 20.622 3.046 9.97 0.257 21.001-6.091 29.092-7.485 9.076-21.683 12.016-31.804 5.667-14.743-8.425-18.334-29.85-9.152-43.593 3.681-6.136 10.076-10.334 17.015-11.788m0.212 5.076c-13.031 2.833-20.38 17.895-17.092 30.319 2.258 11.182 13.531 20.546 25.198 18.077 13.773-2.561 21.486-18.774 17.41-31.607-2.712-10.91-14.136-19.623-25.516-16.789z" fill="#1d1d1d" stroke="#1d1d1d"/>
	<path d="m408.68 467.09c21.622-15.622 42.653-32.047 64.003-48.032 1.712 0.864 3.44 1.727 5.167 2.606-8.061 4.637-14.91 11.016-22.395 16.455-23.986 18.592-48.699 36.183-73.109 54.199-44.017 32.441-86.594 66.806-127.67 102.88 5.076-9.773 14.167-16.228 21.925-23.698 18.728-18.349 39.517-34.38 60.124-50.532 23.577-18.501 47.669-36.335 71.957-53.881z" fill="#1e1e1e" stroke="#1e1e1e"/>
	<path d="m946.08 423.06c11.379-2.833 22.804 5.879 25.516 16.789 4.076 12.834-3.637 29.047-17.41 31.607-11.667 2.47-22.94-6.894-25.198-18.077-3.287-12.425 4.061-27.486 17.092-30.319z" fill="#fff" stroke="#fff"/>
	<path d="m1292.3 587.11c5.288-4.97 12.455-7.879 19.743-7.818 11.167-0.045 21.759 4.424 31.441 9.652 16.546 9.137 31.32 21.092 45.745 33.229 6.909 6.167 14.758 11.591 19.804 19.531 9.182 14.031 13.607 30.607 16.061 47.047 1.697 13.698 2.743 28.138-1.864 41.426-11.894 31.91-29.016 63.29-56.229 84.67-11.076 8.606-21.38 18.243-33.123 25.971-3.121 2.243-7.212 2.924-10.046 5.47-0.151 34.85-0.091 70.457-10.606 104.06-1.637 8.046-5.909 15.501-6.682 23.683-1.106 0.151-2.182 0.303-3.243 0.439-1.303-1.258-2.591-2.485-3.849-3.712 5.167-12.955 8.652-26.501 12.016-40.017 4.182-19.789 5.061-40.093 5.606-60.26-0.121-8.44 0.788-16.985-0.303-25.365-10.349-8.44-15.592-21.046-23.865-31.229-8.076-10.561-18.577-18.819-28.653-27.334-17.97-15.289-37.077-29.516-52.835-47.184-8.47-9.016-10.546-22.031-9.349-33.926 1.773-17.258 8.591-34.38 20.774-46.926 22.713-24.213 45.017-48.896 69.457-71.412m15.683-2.485c-7.637 1.015-13.349 6.576-18.607 11.698-22.259 21.198-42.956 43.941-63.957 66.366-10.425 10.879-16.41 25.456-18.607 40.229-1.243 10.016-0.955 21.152 5.212 29.653 6.015 8.076 13.637 14.773 21.077 21.486 15.577 13.758 32.001 26.531 47.638 40.214 8.667 7.531 16.182 16.349 22.425 25.971 4.258 6.258 7.864 13.122 13.455 18.349 3.894 3.864 9.743 1.076 13.682-1.288 12.379-8.061 23.365-18.046 34.926-27.198 20.668-16.455 35.32-39.183 46.138-63.003 3.985-9.637 9.046-19.137 10.213-29.638 1.561-16.213-0.788-32.607-5.212-48.199-3.788-12.47-9.016-25.289-19.198-33.926-17.425-15.137-35.108-30.289-55.275-41.668-10.318-5.591-21.91-10.743-33.91-9.046z" fill="#1e1e1e" stroke="#1e1e1e"/>
	<path d="m1308 584.62c12-1.697 23.592 3.455 33.91 9.046 20.167 11.379 37.85 26.531 55.275 41.668 10.182 8.637 15.41 21.455 19.198 33.926 4.424 15.592 6.773 31.986 5.212 48.199-1.167 10.5-6.228 20.001-10.213 29.638-10.819 23.819-25.471 46.547-46.138 63.003-11.561 9.152-22.546 19.137-34.926 27.198-3.94 2.364-9.788 5.152-13.682 1.288-5.591-5.228-9.198-12.091-13.455-18.349-6.243-9.622-13.758-18.44-22.425-25.971-15.637-13.682-32.062-26.456-47.638-40.214-7.44-6.712-15.061-13.41-21.077-21.486-6.167-8.5-6.455-19.637-5.212-29.653 2.197-14.773 8.182-29.35 18.607-40.229 21.001-22.425 41.699-45.169 63.957-66.366 5.258-5.122 10.97-10.683 18.607-11.698m86.534 107.7c-5.864 2.591-9.243 8.47-11.667 14.091-4.091 9.773-7.303 19.865-11.319 29.653-2.939 7.394-5.758 16.107-1.682 23.653 1.561 3.076 4.379 7.424 8.47 5.94 4.667-2.394 7.076-7.44 9.485-11.834 5.97-12.273 10.576-25.153 14.758-38.108 1.864-6.97 4.485-14.395 2.576-21.607-1.53-4.515-7.333-3.363-10.621-1.788m-159.13 16.622c-3.152 5.031-2.531 11.485-1.273 17.016 3.318 11.591 11.061 21.849 21.016 28.607 3.955 2.849 9.167 3.864 13.743 1.788 10.879-4.379 19.683-12.546 27.895-20.683-12.379-12.394-26.91-23.258-43.608-28.925-5.727-1.576-13.606-3.242-17.773 2.197z" fill="#ef8b8b" stroke="#ef8b8b"/><g stroke="#000">
	<path d="m1394.5 692.32c3.288-1.576 9.091-2.727 10.622 1.788 1.909 7.212-0.712 14.637-2.576 21.607-4.182 12.955-8.788 25.834-14.758 38.108-2.409 4.394-4.818 9.44-9.485 11.834-4.091 1.485-6.909-2.864-8.47-5.94-4.076-7.546-1.258-16.258 1.682-23.653 4.015-9.788 7.228-19.88 11.319-29.653 2.423-5.621 5.802-11.5 11.666-14.091z"/>
	<path d="m1235.4 708.95c4.167-5.44 12.046-3.773 17.773-2.197 16.698 5.667 31.229 16.531 43.608 28.925-8.213 8.137-17.016 16.304-27.895 20.683-4.576 2.076-9.788 1.061-13.743-1.788-9.955-6.758-17.698-17.016-21.016-28.607-1.257-5.53-1.879-11.985 1.273-17.016z"/>
	<path d="m1306.5 974.03c10.698-1.606 21.046-4.864 31.335-8.152-8 5.015-16.288 9.773-23.016 16.486-11.516 11.213-20.561 24.986-34.032 34.123-10.622 8.849-25.168 10.258-38.441 9.122-18.137-1.712-35.986-7.531-51.275-17.47-8.091-5.167-18.41-9.182-27.713-4.803 7.788-8.258 15.592-16.607 24.577-23.622 8.955-6.031 19.743-8.531 30.244-10.334 18.955-2.833 38.699-2.546 57.108 3.243 9.016 2.833 18.637 2.727 27.971 1.849 1.061-0.139 2.136-0.291 3.242-0.442z"/>
	</g><path d="m1423.2 1031.4c1.333-8.819 1.682-17.789 3.758-26.471 0.455 14.879-2.742 29.562-4.046 44.335-4.682 38.002-8.622 76.215-16.849 113.66-15.879 55.381-24.668 113-47.381 166.26-3.864 8.546-7.319 17.455-13.182 24.91 4.485-11.773 9.773-23.243 13.213-35.395 10.546-35.82 22.425-71.26 32.153-107.32 8.788-29.728 14.182-60.305 19.804-90.761 5.499-29.546 8.802-59.426 12.53-89.215z" fill="#1d1d1d" stroke="#1d1d1d"/>
	<path d="m125.32 1386.7c6.515 5.576 10.425 13.349 15.637 20.016 5.667 8.182 12.41 15.682 16.91 24.637-7.925-6.015-13.637-14.319-19.38-22.289-4.621-7.303-10.424-14.03-13.167-22.364z" fill="#181818" stroke="#181818"/>
	<path d="m1251.5 1430.9c0.424 4.485 3.712 9.213 2.258 13.622-11.182 13.364-22.213 27.001-35.426 38.456-41.32 36.017-87.261 66.336-134.57 93.852 4.818 13.137 10.682 26.471 10.394 40.759-0.167 2.046 0.333 4.985-2.545 5.167-7.773 1.424-15.728 0.364-23.547 0.546-58.078 0.091-116.16-0.227-174.23 0.288-14.167 0.03-28.274-1.515-42.426-1.349-40.38-1.258-80.594-5.485-120.91-7.773 0.894 2.894 1.803 5.803 2.727 8.728-71.564 0.121-143.13 0.303-214.68-0.091-0.894-3.318-1.803-6.621-2.682-9.91-7.425-1.318-14.94-2.015-22.456-2.561-20.531-1.803-41.093-4-61.73-3.651-29.789 0.333-60.26-5.106-86.534-19.622 5.682 1.894 11.561 3.137 17.576 3.303 11.94 3.606 23.819 7.667 36.259 9.197 17.334 2.682 34.926 1.44 52.381 2.47 22.243 0.879 44.32 3.818 66.503 5.394 3.576-19.077 12.091-36.774 21.88-53.351 5.864-10.031 14.91-17.728 24.622-23.88 15.561-9.682 33.759-15.44 52.154-15.379 23.137-0.197 45.32 11.213 60.29 28.531 10.682 12.713 19.728 26.698 29.683 39.986 6.409 8.182 11.622 17.425 18.789 24.971 51.502 4.137 103.1 8.682 154.82 9.228 16.198-22.304 32.274-44.699 48.547-66.957 12.5-16.955 30.668-30.441 51.669-34.335 28.107-5.212 57.805 4.712 79.125 23.259 10.197 8.576 15.803 20.925 21.94 32.441 38.532-21.698 75.488-46.259 110.37-73.458 17.001-13.622 34.304-27.395 47.684-44.775 3.743-4.924 8.607-8.909 12.198-13.94 0.272-3.06-0.016-6.136-0.137-9.166m-696.72 112.73c-8.485 7.182-13.682 17.182-18.773 26.849-7.515 14.652-13.607 30.411-14.698 47.002 22.622 1.167 45.305 0.182 67.957 0.5 45.169-0.212 90.352 0.439 135.52-0.318-9.773-15.47-21.258-29.789-31.789-44.744-8.606-11.5-16.228-23.971-27.138-33.517-12.682-11.379-29.213-18.592-46.305-19.228-23.546-0.939-47.017 8.152-64.775 23.456m417.94-19.986c-16.97 5.273-31.016 17.304-41.38 31.456-15.091 20.834-30.441 41.502-45.169 62.578 23.743 0.697 47.517 0.106 71.291 0.303 44.108-0.121 88.216 0.242 132.32-0.182-0.576-20.455-9.985-39.29-19.607-56.881-7.455-14.425-20.955-24.622-35.335-31.501-19.122-9.137-41.714-12.531-62.124-5.773z" fill="#1c1c1c" stroke="#1c1c1c"/>
	<path d="m554.81 1543.6c17.758-15.304 41.229-24.395 64.775-23.456 17.092 0.636 33.623 7.849 46.305 19.228 10.91 9.546 18.531 22.016 27.138 33.517 10.531 14.955 22.016 29.274 31.789 44.744-45.169 0.758-90.352 0.106-135.52 0.318-22.652-0.318-45.335 0.667-67.957-0.5 1.091-16.591 7.182-32.35 14.698-47.002 5.09-9.667 10.287-19.667 18.773-26.849z" fill="#9a653b" stroke="#9a653b"/>
	<path d="m972.75 1523.6c20.41-6.758 43.002-3.364 62.124 5.773 14.38 6.879 27.88 17.076 35.335 31.501 9.622 17.592 19.031 36.426 19.607 56.881-44.108 0.424-88.216 0.06-132.32 0.182-23.774-0.197-47.547 0.394-71.291-0.303 14.728-21.077 30.077-41.744 45.169-62.578 10.364-14.152 24.41-26.183 41.38-31.456z" fill="#9a653b" stroke="#9a653b"/>
</g>
<text x="1539.0765" y="855.78467" font-family="DynaPuff" font-size="621.46px" font-weight="bold" letter-spacing="0px" word-spacing="0px" style="line-height:1" xml:space="preserve"><tspan x="1539.0765" y="855.78467">Guinea</tspan><tspan x="1539.0765" y="1477.2427">Pig Gym</tspan></text></svg>
